<svg preserveAspectRatio="none" width="100%" height="100%" overflow="visible" style="display: block;" viewBox="0 0 1523 611" fill="none" xmlns="http://www.w3.org/2000/svg">
<g id="Cover" clip-path="url(#clip0_1890_17064)">
<rect width="1523" height="611" fill="#F5F5F5"/>
<g id="Group 2131330829">
<line id="Line 35" x1="14" y1="106" x2="14" y2="611" stroke="var(--stroke-0, black)" stroke-opacity="0.2" stroke-width="2"/>
<line id="Line 36" x1="26" y1="106" x2="26" y2="611" stroke="var(--stroke-0, black)" stroke-opacity="0.2" stroke-width="2"/>
<line id="Line 37" x1="38" y1="106" x2="38" y2="611" stroke="var(--stroke-0, black)" stroke-opacity="0.2" stroke-width="2"/>
<line id="Line 38" x1="50" y1="106" x2="50" y2="611" stroke="var(--stroke-0, black)" stroke-opacity="0.2" stroke-width="2"/>
<line id="Line 39" x1="62" y1="106" x2="62" y2="611" stroke="var(--stroke-0, black)" stroke-opacity="0.2" stroke-width="2"/>
<line id="Line 40" x1="74" y1="106" x2="74" y2="611" stroke="var(--stroke-0, black)" stroke-opacity="0.2" stroke-width="2"/>
<line id="Line 41" x1="86" y1="106" x2="86" y2="611" stroke="var(--stroke-0, black)" stroke-opacity="0.2" stroke-width="2"/>
<line id="Line 42" x1="98" y1="106" x2="98" y2="611" stroke="var(--stroke-0, black)" stroke-opacity="0.2" stroke-width="2"/>
<line id="Line 43" x1="110" y1="106" x2="110" y2="611" stroke="var(--stroke-0, black)" stroke-opacity="0.2" stroke-width="2"/>
<line id="Line 44" x1="122" y1="106" x2="122" y2="611" stroke="var(--stroke-0, black)" stroke-opacity="0.2" stroke-width="2"/>
<line id="Line 45" x1="134" y1="106" x2="134" y2="611" stroke="var(--stroke-0, black)" stroke-opacity="0.2" stroke-width="2"/>
<line id="Line 46" x1="146" y1="106" x2="146" y2="611" stroke="var(--stroke-0, black)" stroke-opacity="0.2" stroke-width="2"/>
<line id="Line 47" x1="158" y1="106" x2="158" y2="611" stroke="var(--stroke-0, black)" stroke-opacity="0.2" stroke-width="2"/>
<line id="Line 48" x1="170" y1="106" x2="170" y2="611" stroke="var(--stroke-0, black)" stroke-opacity="0.2" stroke-width="2"/>
<line id="Line 49" x1="182" y1="106" x2="182" y2="611" stroke="var(--stroke-0, black)" stroke-opacity="0.2" stroke-width="2"/>
<line id="Line 50" x1="194" y1="106" x2="194" y2="611" stroke="var(--stroke-0, black)" stroke-opacity="0.2" stroke-width="2"/>
<line id="Line 51" x1="206" y1="106" x2="206" y2="611" stroke="var(--stroke-0, black)" stroke-opacity="0.2" stroke-width="2"/>
<line id="Line 52" x1="218" y1="106" x2="218" y2="611" stroke="var(--stroke-0, black)" stroke-opacity="0.2" stroke-width="2"/>
<line id="Line 53" x1="230" y1="106" x2="230" y2="611" stroke="var(--stroke-0, black)" stroke-opacity="0.2" stroke-width="2"/>
<line id="Line 54" x1="242" y1="106" x2="242" y2="611" stroke="var(--stroke-0, black)" stroke-opacity="0.2" stroke-width="2"/>
<line id="Line 55" x1="254" y1="106" x2="254" y2="611" stroke="var(--stroke-0, black)" stroke-opacity="0.2" stroke-width="2"/>
<line id="Line 56" x1="266" y1="106" x2="266" y2="611" stroke="var(--stroke-0, black)" stroke-opacity="0.2" stroke-width="2"/>
<line id="Line 57" x1="278" y1="106" x2="278" y2="611" stroke="var(--stroke-0, black)" stroke-opacity="0.2" stroke-width="2"/>
<line id="Line 58" x1="290" y1="106" x2="290" y2="611" stroke="var(--stroke-0, black)" stroke-opacity="0.2" stroke-width="2"/>
<line id="Line 59" x1="302" y1="106" x2="302" y2="611" stroke="var(--stroke-0, black)" stroke-opacity="0.2" stroke-width="2"/>
<line id="Line 60" x1="314" y1="106" x2="314" y2="611" stroke="var(--stroke-0, black)" stroke-opacity="0.2" stroke-width="2"/>
<line id="Line 61" x1="326" y1="106" x2="326" y2="611" stroke="var(--stroke-0, black)" stroke-opacity="0.2" stroke-width="2"/>
<line id="Line 62" x1="338" y1="106" x2="338" y2="611" stroke="var(--stroke-0, black)" stroke-opacity="0.2" stroke-width="2"/>
<line id="Line 63" x1="350" y1="106" x2="350" y2="611" stroke="var(--stroke-0, black)" stroke-opacity="0.2" stroke-width="2"/>
<line id="Line 64" x1="362" y1="106" x2="362" y2="611" stroke="var(--stroke-0, black)" stroke-opacity="0.2" stroke-width="2"/>
<line id="Line 65" x1="374" y1="106" x2="374" y2="611" stroke="var(--stroke-0, black)" stroke-opacity="0.2" stroke-width="2"/>
<line id="Line 66" x1="386" y1="106" x2="386" y2="611" stroke="var(--stroke-0, black)" stroke-opacity="0.2" stroke-width="2"/>
<line id="Line 67" x1="398" y1="106" x2="398" y2="611" stroke="var(--stroke-0, black)" stroke-opacity="0.2" stroke-width="2"/>
<line id="Line 68" x1="410" y1="106" x2="410" y2="611" stroke="var(--stroke-0, black)" stroke-opacity="0.2" stroke-width="2"/>
<line id="Line 69" x1="422" y1="106" x2="422" y2="611" stroke="var(--stroke-0, black)" stroke-opacity="0.2" stroke-width="2"/>
<line id="Line 70" x1="434" y1="106" x2="434" y2="611" stroke="var(--stroke-0, black)" stroke-opacity="0.2" stroke-width="2"/>
<line id="Line 71" x1="446" y1="106" x2="446" y2="611" stroke="var(--stroke-0, black)" stroke-opacity="0.2" stroke-width="2"/>
<line id="Line 72" x1="458" y1="106" x2="458" y2="611" stroke="var(--stroke-0, black)" stroke-opacity="0.2" stroke-width="2"/>
<line id="Line 73" x1="470" y1="106" x2="470" y2="611" stroke="var(--stroke-0, black)" stroke-opacity="0.2" stroke-width="2"/>
<line id="Line 74" x1="482" y1="106" x2="482" y2="611" stroke="var(--stroke-0, black)" stroke-opacity="0.2" stroke-width="2"/>
<line id="Line 75" x1="494" y1="106" x2="494" y2="611" stroke="var(--stroke-0, black)" stroke-opacity="0.2" stroke-width="2"/>
<line id="Line 76" x1="506" y1="106" x2="506" y2="611" stroke="var(--stroke-0, black)" stroke-opacity="0.2" stroke-width="2"/>
<line id="Line 77" x1="518" y1="106" x2="518" y2="611" stroke="var(--stroke-0, black)" stroke-opacity="0.2" stroke-width="2"/>
<line id="Line 78" x1="530" y1="106" x2="530" y2="611" stroke="var(--stroke-0, black)" stroke-opacity="0.2" stroke-width="2"/>
<line id="Line 79" x1="542" y1="106" x2="542" y2="611" stroke="var(--stroke-0, black)" stroke-opacity="0.2" stroke-width="2"/>
<line id="Line 80" x1="554" y1="106" x2="554" y2="611" stroke="var(--stroke-0, black)" stroke-opacity="0.2" stroke-width="2"/>
<line id="Line 81" x1="566" y1="106" x2="566" y2="611" stroke="var(--stroke-0, black)" stroke-opacity="0.2" stroke-width="2"/>
<line id="Line 82" x1="578" y1="106" x2="578" y2="611" stroke="var(--stroke-0, black)" stroke-opacity="0.2" stroke-width="2"/>
<line id="Line 83" x1="590" y1="106" x2="590" y2="611" stroke="var(--stroke-0, black)" stroke-opacity="0.2" stroke-width="2"/>
<line id="Line 84" x1="602" y1="106" x2="602" y2="611" stroke="var(--stroke-0, black)" stroke-opacity="0.2" stroke-width="2"/>
<line id="Line 85" x1="614" y1="106" x2="614" y2="611" stroke="var(--stroke-0, black)" stroke-opacity="0.2" stroke-width="2"/>
<line id="Line 86" x1="626" y1="106" x2="626" y2="611" stroke="var(--stroke-0, black)" stroke-opacity="0.2" stroke-width="2"/>
<line id="Line 87" x1="638" y1="106" x2="638" y2="611" stroke="var(--stroke-0, black)" stroke-opacity="0.2" stroke-width="2"/>
<line id="Line 88" x1="650" y1="106" x2="650" y2="611" stroke="var(--stroke-0, black)" stroke-opacity="0.2" stroke-width="2"/>
<line id="Line 89" x1="662" y1="106" x2="662" y2="611" stroke="var(--stroke-0, black)" stroke-opacity="0.2" stroke-width="2"/>
<line id="Line 90" x1="674" y1="106" x2="674" y2="611" stroke="var(--stroke-0, black)" stroke-opacity="0.2" stroke-width="2"/>
<line id="Line 91" x1="686" y1="106" x2="686" y2="611" stroke="var(--stroke-0, black)" stroke-opacity="0.2" stroke-width="2"/>
<line id="Line 92" x1="698" y1="106" x2="698" y2="611" stroke="var(--stroke-0, black)" stroke-opacity="0.2" stroke-width="2"/>
<line id="Line 93" x1="710" y1="106" x2="710" y2="611" stroke="var(--stroke-0, black)" stroke-opacity="0.2" stroke-width="2"/>
<line id="Line 94" x1="722" y1="106" x2="722" y2="611" stroke="var(--stroke-0, black)" stroke-opacity="0.2" stroke-width="2"/>
<line id="Line 95" x1="734" y1="106" x2="734" y2="611" stroke="var(--stroke-0, black)" stroke-opacity="0.2" stroke-width="2"/>
<line id="Line 96" x1="746" y1="106" x2="746" y2="611" stroke="var(--stroke-0, black)" stroke-opacity="0.2" stroke-width="2"/>
<line id="Line 97" x1="758" y1="106" x2="758" y2="611" stroke="var(--stroke-0, black)" stroke-opacity="0.2" stroke-width="2"/>
<line id="Line 98" x1="770" y1="106" x2="770" y2="611" stroke="var(--stroke-0, black)" stroke-opacity="0.2" stroke-width="2"/>
<line id="Line 99" x1="782" y1="106" x2="782" y2="611" stroke="var(--stroke-0, black)" stroke-opacity="0.2" stroke-width="2"/>
<line id="Line 100" x1="794" y1="106" x2="794" y2="611" stroke="var(--stroke-0, black)" stroke-opacity="0.2" stroke-width="2"/>
<line id="Line 101" x1="806" y1="106" x2="806" y2="611" stroke="var(--stroke-0, black)" stroke-opacity="0.2" stroke-width="2"/>
<line id="Line 102" x1="818" y1="106" x2="818" y2="611" stroke="var(--stroke-0, black)" stroke-opacity="0.2" stroke-width="2"/>
<line id="Line 103" x1="830" y1="106" x2="830" y2="611" stroke="var(--stroke-0, black)" stroke-opacity="0.2" stroke-width="2"/>
<line id="Line 104" x1="842" y1="106" x2="842" y2="611" stroke="var(--stroke-0, black)" stroke-opacity="0.2" stroke-width="2"/>
<line id="Line 105" x1="854" y1="106" x2="854" y2="611" stroke="var(--stroke-0, black)" stroke-opacity="0.2" stroke-width="2"/>
<line id="Line 106" x1="866" y1="106" x2="866" y2="611" stroke="var(--stroke-0, black)" stroke-opacity="0.2" stroke-width="2"/>
<line id="Line 107" x1="878" y1="106" x2="878" y2="611" stroke="var(--stroke-0, black)" stroke-opacity="0.2" stroke-width="2"/>
<line id="Line 108" x1="890" y1="106" x2="890" y2="611" stroke="var(--stroke-0, black)" stroke-opacity="0.2" stroke-width="2"/>
<line id="Line 109" x1="902" y1="106" x2="902" y2="611" stroke="var(--stroke-0, black)" stroke-opacity="0.2" stroke-width="2"/>
<line id="Line 110" x1="914" y1="106" x2="914" y2="611" stroke="var(--stroke-0, black)" stroke-opacity="0.2" stroke-width="2"/>
<line id="Line 111" x1="926" y1="106" x2="926" y2="611" stroke="var(--stroke-0, black)" stroke-opacity="0.2" stroke-width="2"/>
<line id="Line 112" x1="938" y1="106" x2="938" y2="611" stroke="var(--stroke-0, black)" stroke-opacity="0.2" stroke-width="2"/>
<line id="Line 113" x1="950" y1="106" x2="950" y2="611" stroke="var(--stroke-0, black)" stroke-opacity="0.2" stroke-width="2"/>
<line id="Line 114" x1="962" y1="106" x2="962" y2="611" stroke="var(--stroke-0, black)" stroke-opacity="0.2" stroke-width="2"/>
<line id="Line 115" x1="974" y1="106" x2="974" y2="611" stroke="var(--stroke-0, black)" stroke-opacity="0.2" stroke-width="2"/>
<line id="Line 116" x1="986" y1="106" x2="986" y2="611" stroke="var(--stroke-0, black)" stroke-opacity="0.2" stroke-width="2"/>
<line id="Line 117" x1="998" y1="106" x2="998" y2="611" stroke="var(--stroke-0, black)" stroke-opacity="0.2" stroke-width="2"/>
<line id="Line 118" x1="1010" y1="106" x2="1010" y2="611" stroke="var(--stroke-0, black)" stroke-opacity="0.2" stroke-width="2"/>
<line id="Line 119" x1="1022" y1="106" x2="1022" y2="611" stroke="var(--stroke-0, black)" stroke-opacity="0.2" stroke-width="2"/>
<line id="Line 120" x1="1034" y1="106" x2="1034" y2="611" stroke="var(--stroke-0, black)" stroke-opacity="0.2" stroke-width="2"/>
<line id="Line 121" x1="1046" y1="106" x2="1046" y2="611" stroke="var(--stroke-0, black)" stroke-opacity="0.2" stroke-width="2"/>
<line id="Line 122" x1="1058" y1="106" x2="1058" y2="611" stroke="var(--stroke-0, black)" stroke-opacity="0.2" stroke-width="2"/>
<line id="Line 123" x1="1070" y1="106" x2="1070" y2="611" stroke="var(--stroke-0, black)" stroke-opacity="0.2" stroke-width="2"/>
<line id="Line 124" x1="1082" y1="106" x2="1082" y2="611" stroke="var(--stroke-0, black)" stroke-opacity="0.2" stroke-width="2"/>
<line id="Line 125" x1="1094" y1="106" x2="1094" y2="611" stroke="var(--stroke-0, black)" stroke-opacity="0.2" stroke-width="2"/>
<line id="Line 126" x1="1106" y1="106" x2="1106" y2="611" stroke="var(--stroke-0, black)" stroke-opacity="0.2" stroke-width="2"/>
<line id="Line 127" x1="1118" y1="106" x2="1118" y2="611" stroke="var(--stroke-0, black)" stroke-opacity="0.2" stroke-width="2"/>
<line id="Line 128" x1="1130" y1="106" x2="1130" y2="611" stroke="var(--stroke-0, black)" stroke-opacity="0.2" stroke-width="2"/>
<line id="Line 129" x1="1142" y1="106" x2="1142" y2="611" stroke="var(--stroke-0, black)" stroke-opacity="0.2" stroke-width="2"/>
<line id="Line 130" x1="1154" y1="106" x2="1154" y2="611" stroke="var(--stroke-0, black)" stroke-opacity="0.2" stroke-width="2"/>
<line id="Line 131" x1="1166" y1="106" x2="1166" y2="611" stroke="var(--stroke-0, black)" stroke-opacity="0.2" stroke-width="2"/>
<line id="Line 132" x1="1178" y1="106" x2="1178" y2="611" stroke="var(--stroke-0, black)" stroke-opacity="0.2" stroke-width="2"/>
<line id="Line 133" x1="1190" y1="106" x2="1190" y2="611" stroke="var(--stroke-0, black)" stroke-opacity="0.2" stroke-width="2"/>
<line id="Line 134" x1="1202" y1="106" x2="1202" y2="611" stroke="var(--stroke-0, black)" stroke-opacity="0.2" stroke-width="2"/>
<line id="Line 135" x1="1214" y1="106" x2="1214" y2="611" stroke="var(--stroke-0, black)" stroke-opacity="0.2" stroke-width="2"/>
<line id="Line 136" x1="1226" y1="106" x2="1226" y2="611" stroke="var(--stroke-0, black)" stroke-opacity="0.2" stroke-width="2"/>
<line id="Line 137" x1="1238" y1="106" x2="1238" y2="611" stroke="var(--stroke-0, black)" stroke-opacity="0.2" stroke-width="2"/>
<line id="Line 138" x1="1250" y1="106" x2="1250" y2="611" stroke="var(--stroke-0, black)" stroke-opacity="0.2" stroke-width="2"/>
<line id="Line 139" x1="1262" y1="106" x2="1262" y2="611" stroke="var(--stroke-0, black)" stroke-opacity="0.2" stroke-width="2"/>
<line id="Line 140" x1="1274" y1="106" x2="1274" y2="611" stroke="var(--stroke-0, #FC5E48)" stroke-width="2"/>
<line id="Line 141" x1="1286" y1="106" x2="1286" y2="611" stroke="var(--stroke-0, black)" stroke-opacity="0.2" stroke-width="2"/>
<line id="Line 142" x1="1298" y1="106" x2="1298" y2="611" stroke="var(--stroke-0, black)" stroke-opacity="0.2" stroke-width="2"/>
<line id="Line 143" x1="1310" y1="106" x2="1310" y2="611" stroke="var(--stroke-0, black)" stroke-opacity="0.2" stroke-width="2"/>
<line id="Line 144" x1="1322" y1="106" x2="1322" y2="611" stroke="var(--stroke-0, black)" stroke-opacity="0.2" stroke-width="2"/>
<line id="Line 145" x1="1334" y1="106" x2="1334" y2="611" stroke="var(--stroke-0, black)" stroke-opacity="0.2" stroke-width="2"/>
<line id="Line 146" x1="1346" y1="106" x2="1346" y2="611" stroke="var(--stroke-0, black)" stroke-opacity="0.2" stroke-width="2"/>
<line id="Line 147" x1="1358" y1="106" x2="1358" y2="611" stroke="var(--stroke-0, black)" stroke-opacity="0.2" stroke-width="2"/>
<line id="Line 148" x1="1370" y1="106" x2="1370" y2="611" stroke="var(--stroke-0, black)" stroke-opacity="0.2" stroke-width="2"/>
<line id="Line 149" x1="1382" y1="106" x2="1382" y2="611" stroke="var(--stroke-0, black)" stroke-opacity="0.2" stroke-width="2"/>
<line id="Line 150" x1="1394" y1="106" x2="1394" y2="611" stroke="var(--stroke-0, black)" stroke-opacity="0.2" stroke-width="2"/>
<line id="Line 151" x1="1406" y1="106" x2="1406" y2="611" stroke="var(--stroke-0, black)" stroke-opacity="0.2" stroke-width="2"/>
<line id="Line 152" x1="1418" y1="106" x2="1418" y2="611" stroke="var(--stroke-0, black)" stroke-opacity="0.2" stroke-width="2"/>
<line id="Line 153" x1="1430" y1="106" x2="1430" y2="611" stroke="var(--stroke-0, black)" stroke-opacity="0.2" stroke-width="2"/>
<line id="Line 154" x1="1442" y1="106" x2="1442" y2="611" stroke="var(--stroke-0, black)" stroke-opacity="0.2" stroke-width="2"/>
<line id="Line 155" x1="1454" y1="106" x2="1454" y2="611" stroke="var(--stroke-0, black)" stroke-opacity="0.2" stroke-width="2"/>
<line id="Line 156" x1="1466" y1="106" x2="1466" y2="611" stroke="var(--stroke-0, black)" stroke-opacity="0.2" stroke-width="2"/>
<line id="Line 157" x1="1478" y1="106" x2="1478" y2="611" stroke="var(--stroke-0, black)" stroke-opacity="0.2" stroke-width="2"/>
<line id="Line 158" x1="1490" y1="106" x2="1490" y2="611" stroke="var(--stroke-0, black)" stroke-opacity="0.2" stroke-width="2"/>
<line id="Line 159" x1="1502" y1="106" x2="1502" y2="611" stroke="var(--stroke-0, black)" stroke-opacity="0.2" stroke-width="2"/>
<line id="Line 160" x1="1514" y1="106" x2="1514" y2="611" stroke="var(--stroke-0, black)" stroke-opacity="0.2" stroke-width="2"/>
<line id="Line 161" x1="1526" y1="106" x2="1526" y2="611" stroke="var(--stroke-0, black)" stroke-opacity="0.2" stroke-width="2"/>
</g>
<path id="Ellipse 5314" d="M1553.5 128.5C1553.5 268.504 1121.5 550 89 537.5C-505.258 537.5 -510 330.504 -510 190.5C-510 50.4958 -28.2584 -63 566 -63C1160.26 -63 1553.5 -11.5042 1553.5 128.5Z" fill="var(--fill-0, #F5F5F5)"/>
<circle id="Ellipse 5313" cx="5.5" cy="5.5" r="5.5" transform="matrix(-1 0 0 1 1280 356)" fill="var(--fill-0, #FC5E48)"/>
</g>
<defs>
<clipPath id="clip0_1890_17064">
<rect width="1523" height="611" fill="white"/>
</clipPath>
</defs>
</svg>
