<svg preserveAspectRatio="none" width="100%" height="100%" overflow="visible" style="display: block;" viewBox="0 0 20 20" fill="none" xmlns="http://www.w3.org/2000/svg">
<g id="Frame">
<path id="Vector" d="M10 17C8.83333 15.9306 7.76042 14.9618 6.78125 14.0938C5.80208 13.2257 4.95833 12.3993 4.25 11.6146C3.54167 10.8299 2.98958 10.0625 2.59375 9.3125C2.19792 8.5625 2 7.77083 2 6.9375C2 5.6875 2.42361 4.63542 3.27083 3.78125C4.11806 2.92708 5.15972 2.5 6.39583 2.5C7.00694 2.5 7.59028 2.61458 8.14583 2.84375C8.70139 3.07292 9.19444 3.38889 9.625 3.79167L8.5 8.5H11L10 15.3958L12.5 7.5H10L11.4167 3.0625C11.75 2.88194 12.1007 2.74306 12.4688 2.64583C12.8368 2.54861 13.2153 2.5 13.6042 2.5C14.8403 2.5 15.8819 2.92708 16.7292 3.78125C17.5764 4.63542 18 5.6875 18 6.9375C18 7.78472 17.7882 8.60069 17.3646 9.38542C16.941 10.1701 16.3646 10.9618 15.6354 11.7604C14.9063 12.559 14.059 13.3819 13.0938 14.2292C12.1285 15.0764 11.0972 16 10 17ZM8.70833 13.8125L9.27083 10H6.60417L7.9375 4.41667C7.70139 4.27778 7.45139 4.17361 7.1875 4.10417C6.92361 4.03472 6.65972 4 6.39583 4C5.57639 4 4.88889 4.28125 4.33333 4.84375C3.77778 5.40625 3.5 6.10417 3.5 6.9375C3.5 7.46528 3.625 7.98611 3.875 8.5C4.125 9.01389 4.47569 9.54861 4.92708 10.1042C5.37847 10.6597 5.92361 11.2396 6.5625 11.8438C7.20139 12.4479 7.91667 13.1042 8.70833 13.8125ZM12.375 12.8542C13.5833 11.7569 14.5729 10.7326 15.3438 9.78125C16.1146 8.82986 16.5 7.88194 16.5 6.9375C16.5 6.10417 16.2222 5.40625 15.6667 4.84375C15.1111 4.28125 14.4236 4 13.6042 4C13.4514 4 13.2917 4.01389 13.125 4.04167C12.9583 4.06944 12.7986 4.11111 12.6458 4.16667L12.0417 6H14.5417L12.375 12.8542Z" fill="var(--fill-0, #F8604A)"/>
</g>
</svg>
